<svg xmlns="http://www.w3.org/2000/svg" width="1200" height="760" viewBox="0 0 1200 760" role="img" aria-labelledby="title desc">
  <title id="title">Scaffold Organizer calendar page</title>
  <desc id="desc">Illustrated monthly calendar with schedule pills, doing and done counters, and seven-day upcoming list.</desc>
  <rect width="1200" height="760" fill="#f7fbff"/>
  <text x="26" y="42" font-family="Arial, sans-serif" font-size="20" font-weight="800" fill="#25272c">Scaffold Organizer</text>
  <g transform="translate(24 82)" font-family="Arial, sans-serif" font-size="13" font-weight="700">
    <rect width="1152" height="44" rx="18" fill="#ffffff" stroke="#d8e1eb"/>
    <text x="20" y="27" fill="#717783">Inbox</text>
    <text x="102" y="27" fill="#717783">Active</text>
    <text x="196" y="27" fill="#717783">Schedule</text>
    <rect x="296" y="8" width="88" height="28" rx="14" fill="#63c7ff" stroke="#25272c"/>
    <text x="316" y="27" fill="#25272c">Calendar</text>
    <text x="414" y="27" fill="#717783">Work Log</text>
  </g>

  <g transform="translate(24 146)">
    <rect width="1152" height="52" rx="18" fill="#ffffff" stroke="#d8e1eb"/>
    <rect x="18" y="12" width="150" height="28" rx="14" fill="#f8fbff" stroke="#d8e1eb"/>
    <text x="42" y="31" font-family="Arial, sans-serif" font-size="13" fill="#25272c">2026-05</text>
    <rect x="184" y="12" width="150" height="28" rx="14" fill="#f8fbff" stroke="#d8e1eb"/>
    <text x="208" y="31" font-family="Arial, sans-serif" font-size="13" fill="#25272c">2026-05-09</text>
    <rect x="350" y="12" width="72" height="28" rx="14" fill="#ffffff" stroke="#25272c"/>
    <text x="372" y="31" font-family="Arial, sans-serif" font-size="12" font-weight="800" fill="#25272c">Today</text>
  </g>

  <g transform="translate(24 218)" font-family="Arial, sans-serif">
    <rect x="0" y="0" width="760" height="420" rx="22" fill="#ffffff" stroke="#d8e1eb"/>
    <g font-size="12" font-weight="800" fill="#717783">
      <text x="28" y="32">Mon</text><text x="136" y="32">Tue</text><text x="244" y="32">Wed</text><text x="352" y="32">Thu</text><text x="460" y="32">Fri</text><text x="568" y="32" fill="#3d86a7">Sat</text><text x="676" y="32" fill="#ff5a73">Sun</text>
    </g>
    <g font-size="12">
      <rect x="18" y="48" width="96" height="64" rx="12" fill="#f1f5f8" stroke="#d8e1eb"/><text x="32" y="70" fill="#9ba7b2">27</text>
      <rect x="126" y="48" width="96" height="64" rx="12" fill="#f1f5f8" stroke="#d8e1eb"/><text x="140" y="70" fill="#9ba7b2">28</text>
      <rect x="234" y="48" width="96" height="64" rx="12" fill="#f1f5f8" stroke="#d8e1eb"/><text x="248" y="70" fill="#9ba7b2">29</text>
      <rect x="342" y="48" width="96" height="64" rx="12" fill="#f1f5f8" stroke="#d8e1eb"/><text x="356" y="70" fill="#9ba7b2">30</text>
      <rect x="450" y="48" width="96" height="64" rx="12" fill="#ffffff" stroke="#d8e1eb"/><text x="464" y="70" fill="#25272c" font-weight="800">1</text>
      <rect x="558" y="48" width="96" height="64" rx="12" fill="#f0faff" stroke="#d8e1eb"/><text x="572" y="70" fill="#3d86a7" font-weight="800">2</text>
      <rect x="666" y="48" width="76" height="64" rx="12" fill="#fff5f7" stroke="#d8e1eb"/><text x="680" y="70" fill="#ff5a73" font-weight="800">3</text>

      <rect x="18" y="122" width="96" height="64" rx="12" fill="#ffffff" stroke="#d8e1eb"/><text x="32" y="144" fill="#25272c" font-weight="800">4</text>
      <rect x="126" y="122" width="96" height="64" rx="12" fill="#ffffff" stroke="#d8e1eb"/><text x="140" y="144" fill="#25272c" font-weight="800">5</text>
      <rect x="234" y="122" width="96" height="64" rx="12" fill="#ffffff" stroke="#d8e1eb"/><text x="248" y="144" fill="#25272c" font-weight="800">6</text>
      <rect x="342" y="122" width="96" height="64" rx="12" fill="#ffffff" stroke="#d8e1eb"/><text x="356" y="144" fill="#25272c" font-weight="800">7</text>
      <rect x="450" y="122" width="96" height="64" rx="12" fill="#ffffff" stroke="#d8e1eb"/><text x="464" y="144" fill="#25272c" font-weight="800">8</text>
      <rect x="558" y="122" width="96" height="64" rx="12" fill="#e8f8ff" stroke="#25272c"/><text x="572" y="144" fill="#25272c" font-weight="800">9</text><text x="608" y="144" fill="#717783">●2 ✓1</text>
      <rect x="572" y="154" width="68" height="16" rx="8" fill="#63c7ff"/><text x="580" y="166" font-size="9" fill="#25272c">Planning</text>
      <rect x="666" y="122" width="76" height="64" rx="12" fill="#fff5f7" stroke="#d8e1eb"/><text x="680" y="144" fill="#ff5a73" font-weight="800">10</text>

      <rect x="18" y="196" width="96" height="64" rx="12" fill="#ffffff" stroke="#d8e1eb"/><text x="32" y="218" fill="#25272c" font-weight="800">11</text>
      <rect x="126" y="196" width="96" height="64" rx="12" fill="#ffffff" stroke="#d8e1eb"/><text x="140" y="218" fill="#25272c" font-weight="800">12</text><text x="176" y="218" fill="#717783">●1 ✓0</text>
      <rect x="140" y="228" width="64" height="16" rx="8" fill="#bdeeff"/><text x="148" y="240" font-size="9" fill="#25272c">Review</text>
      <rect x="234" y="196" width="96" height="64" rx="12" fill="#ffffff" stroke="#d8e1eb"/><text x="248" y="218" fill="#25272c" font-weight="800">13</text>
      <rect x="342" y="196" width="96" height="64" rx="12" fill="#ffffff" stroke="#d8e1eb"/><text x="356" y="218" fill="#25272c" font-weight="800">14</text>
      <rect x="450" y="196" width="96" height="64" rx="12" fill="#ffffff" stroke="#d8e1eb"/><text x="464" y="218" fill="#25272c" font-weight="800">15</text>
      <rect x="558" y="196" width="96" height="64" rx="12" fill="#f0faff" stroke="#d8e1eb"/><text x="572" y="218" fill="#3d86a7" font-weight="800">16</text>
      <rect x="666" y="196" width="76" height="64" rx="12" fill="#fff5f7" stroke="#d8e1eb"/><text x="680" y="218" fill="#ff5a73" font-weight="800">17</text>
    </g>
  </g>

  <g transform="translate(812 218)" font-family="Arial, sans-serif">
    <rect x="5" y="5" width="340" height="420" rx="22" fill="#63c7ff"/>
    <rect width="340" height="420" rx="22" fill="#ffffff" stroke="#25272c"/>
    <text x="24" y="42" font-size="20" font-weight="800" fill="#25272c">Next 7 days</text>
    <g font-size="13">
      <text x="24" y="82" font-weight="800" fill="#25272c">2026-05-09</text>
      <rect x="24" y="96" width="292" height="44" rx="14" fill="#f8fbff" stroke="#d8e1eb"/>
      <text x="40" y="123" fill="#25272c">Planning sync</text>
      <text x="24" y="172" font-weight="800" fill="#25272c">2026-05-10</text>
      <text x="24" y="196" fill="#717783">No schedules</text>
      <text x="24" y="232" font-weight="800" fill="#25272c">2026-05-11</text>
      <rect x="24" y="246" width="292" height="44" rx="14" fill="#f8fbff" stroke="#d8e1eb"/>
      <text x="40" y="273" fill="#25272c">Draft review</text>
      <text x="24" y="322" font-weight="800" fill="#25272c">2026-05-12</text>
      <rect x="24" y="336" width="292" height="44" rx="14" fill="#f8fbff" stroke="#d8e1eb"/>
      <text x="40" y="363" fill="#25272c">Calendar cleanup</text>
    </g>
  </g>
</svg>
